<svg width="32" height="32" viewBox="0 0 32 32" fill="none" xmlns="http://www.w3.org/2000/svg">
<g clip-path="url(#clip0_1128_6922)">
<path d="M30.475 25.9H28.955V30.47H27.435V27.43H25.905V32H30.475V25.9Z" fill="#000001"/>
<path d="M28.955 19.81H27.435V25.9H28.955V19.81Z" fill="#000001"/>
<path d="M25.905 22.85H24.385V27.43H25.905V22.85Z" fill="#000001"/>
<path d="M24.385 16.76H25.905V19.81H27.435V15.24H25.905V7.62H27.435V1.52H16.765V0H15.245V1.52H4.575V7.62H6.1V3.05H22.87V7.62H21.34V15.24H19.82V21.33H3.055V15.24H1.525V22.85H4.575V27.43H6.1V22.85H7.63V27.43H6.1V30.47H4.575V27.43H3.055V32H7.625V28.95H16.765V32H21.335V27.43H19.815V30.47H18.285V27.43H9.145V25.9H18.285V27.43H19.815V22.85H21.335V27.43H22.865V22.85H24.385V16.76ZM18.285 24.38H9.145V22.85H18.285V24.38Z" fill="#000001"/>
<path d="M19.815 10.66H18.285V13.71H19.815V10.66Z" fill="#000001"/>
<path d="M18.285 13.71H16.765V16.76H18.285V13.71Z" fill="#000001"/>
<path d="M18.285 9.14001H16.765V10.66H18.285V9.14001Z" fill="#000001"/>
<path d="M18.285 4.57001H16.765V6.09001H18.285V4.57001Z" fill="#000001"/>
<path d="M16.765 16.76H9.145V18.28H16.765V16.76Z" fill="#000001"/>
<path d="M15.245 10.66H13.715V12.19H15.245V10.66Z" fill="#000001"/>
<path d="M13.715 13.71H12.195V15.24H13.715V13.71Z" fill="#000001"/>
<path d="M10.675 10.66H9.145V12.19H10.675V10.66Z" fill="#000001"/>
<path d="M16.765 9.14001V6.09001H15.245V7.62001H13.715V4.57001H12.195V7.62001H10.675V6.09001H9.145V7.62001H7.625V9.14001H16.765Z" fill="#000001"/>
<path d="M9.145 13.71H7.625V16.76H9.145V13.71Z" fill="#000001"/>
<path d="M9.145 4.57001H7.625V6.09001H9.145V4.57001Z" fill="#000001"/>
<path d="M7.625 9.14001H6.095V13.71H7.625V9.14001Z" fill="#000001"/>
<path d="M4.575 7.62H3.055V15.24H4.575V7.62Z" fill="#000001"/>
</g>
<defs>
<clipPath id="clip0_1128_6922">
<rect width="32" height="32" fill="white"/>
</clipPath>
</defs>
</svg>
