<svg width="32" height="32" viewBox="0 0 32 32" fill="none" xmlns="http://www.w3.org/2000/svg">
<g clip-path="url(#clip0_1135_2507)">
<path d="M32 4.57007H30.48V10.6701H32V4.57007Z" fill="#000001"/>
<path d="M28.95 15.24H27.43V21.33H28.95V15.24Z" fill="#000001"/>
<path d="M30.48 10.67H27.43V12.19H30.48V10.67Z" fill="#000001"/>
<path d="M27.43 21.3301H25.91V24.3801H27.43V21.3301Z" fill="#000001"/>
<path d="M27.43 12.1901H25.91V15.2401H27.43V12.1901Z" fill="#000001"/>
<path d="M28.95 6.09009H25.91V9.14009H28.95V6.09009Z" fill="#000001"/>
<path d="M30.48 3.05005H24.38V4.57005H30.48V3.05005Z" fill="#000001"/>
<path d="M25.91 24.38H24.38V25.9H25.91V24.38Z" fill="#000001"/>
<path d="M24.38 25.9H21.34V27.43H24.38V25.9Z" fill="#000001"/>
<path d="M24.38 4.57007H21.34V6.09007H24.38V4.57007Z" fill="#000001"/>
<path d="M21.34 10.67H19.81V12.19H21.34V10.67Z" fill="#000001"/>
<path d="M21.34 27.4301H10.67V28.9501H21.34V27.4301Z" fill="#000001"/>
<path d="M19.81 18.28H18.29V19.81H19.81V18.28Z" fill="#000001"/>
<path d="M12.19 13.7101V15.2401H13.72V16.7601H15.24V18.2801H16.76V16.7601H18.29V15.2401H19.81V13.7101H12.19Z" fill="#000001"/>
<path d="M18.29 19.8101H15.24V21.3301H18.29V19.8101Z" fill="#000001"/>
<path d="M21.34 3.05005H10.67V4.57005H21.34V3.05005Z" fill="#000001"/>
<path d="M12.19 10.67H10.67V12.19H12.19V10.67Z" fill="#000001"/>
<path d="M10.67 25.9H7.62V27.43H10.67V25.9Z" fill="#000001"/>
<path d="M10.67 4.57007H7.62V6.09007H10.67V4.57007Z" fill="#000001"/>
<path d="M7.61998 24.38H6.09998V25.9H7.61998V24.38Z" fill="#000001"/>
<path d="M6.10001 21.3301H4.57001V24.3801H6.10001V21.3301Z" fill="#000001"/>
<path d="M6.10001 12.1901H4.57001V15.2401H6.10001V12.1901Z" fill="#000001"/>
<path d="M4.56999 15.24H3.04999V21.33H4.56999V15.24Z" fill="#000001"/>
<path d="M4.57003 10.67H1.53003V12.19H4.57003V10.67Z" fill="#000001"/>
<path d="M6.09999 6.09009H3.04999V9.14009H6.09999V6.09009Z" fill="#000001"/>
<path d="M7.62003 3.05005H1.53003V4.57005H7.62003V3.05005Z" fill="#000001"/>
<path d="M1.53 4.57007H0V10.6701H1.53V4.57007Z" fill="#000001"/>
</g>
<defs>
<clipPath id="clip0_1135_2507">
<rect width="32" height="32" fill="white"/>
</clipPath>
</defs>
</svg>
