<svg width="32" height="32" viewBox="0 0 32 32" fill="none" xmlns="http://www.w3.org/2000/svg">
<g clip-path="url(#clip0_1135_2398)">
<path d="M30.47 19.81H28.95V21.34H30.47V22.86H32V16.77H30.47V19.81Z" fill="#000001"/>
<path d="M30.47 22.86H28.95V25.91H30.47V22.86Z" fill="#000001"/>
<path d="M30.47 13.72H28.95V16.77H30.47V13.72Z" fill="#000001"/>
<path d="M28.95 25.91H27.43V27.43H28.95V25.91Z" fill="#000001"/>
<path d="M28.95 18.29H25.9V19.81H28.95V18.29Z" fill="#000001"/>
<path d="M28.95 3.05005H27.43V13.72H28.95V3.05005Z" fill="#000001"/>
<path d="M27.43 27.4301H25.9V28.9601H27.43V27.4301Z" fill="#000001"/>
<path d="M25.9 3.05H27.43V0H24.38V1.53H25.9V3.05Z" fill="#000001"/>
<path d="M25.9 16.77H19.81V18.29H25.9V16.77Z" fill="#000001"/>
<path d="M25.9 28.96H21.33V30.48H25.9V28.96Z" fill="#000001"/>
<path d="M25.9 9.14996V4.57996H24.38V6.09996H22.86V7.61996H21.33V9.14996H25.9Z" fill="#000001"/>
<path d="M24.38 1.53003H22.86V3.05003H24.38V1.53003Z" fill="#000001"/>
<path d="M22.86 13.72H21.33V15.24H22.86V13.72Z" fill="#000001"/>
<path d="M22.86 3.05005H21.33V4.58005H22.86V3.05005Z" fill="#000001"/>
<path d="M21.33 4.57996H19.81V6.09996H21.33V4.57996Z" fill="#000001"/>
<path d="M21.33 30.48H10.66V32H21.33V30.48Z" fill="#000001"/>
<path d="M19.81 21.34H18.28V22.86H19.81V21.34Z" fill="#000001"/>
<path d="M12.19 15.24V16.77H13.71V18.29H15.24V19.81H16.76V18.29H18.28V16.77H19.81V15.24H12.19Z" fill="#000001"/>
<path d="M18.28 22.86H15.24V24.38H18.28V22.86Z" fill="#000001"/>
<path d="M19.81 6.09998H12.19V7.61998H19.81V6.09998Z" fill="#000001"/>
<path d="M12.19 4.57996H10.66V6.09996H12.19V4.57996Z" fill="#000001"/>
<path d="M10.66 28.96H6.09V30.48H10.66V28.96Z" fill="#000001"/>
<path d="M12.19 16.77H6.09V18.29H12.19V16.77Z" fill="#000001"/>
<path d="M10.66 13.72H9.14001V15.24H10.66V13.72Z" fill="#000001"/>
<path d="M10.66 3.05005H9.14001V4.58005H10.66V3.05005Z" fill="#000001"/>
<path d="M10.66 9.14996V7.61996H9.14V6.09996H7.62V4.57996H6.09V9.14996H10.66Z" fill="#000001"/>
<path d="M9.14 1.53003H7.62V3.05003H9.14V1.53003Z" fill="#000001"/>
<path d="M6.09001 27.4301H4.57001V28.9601H6.09001V27.4301Z" fill="#000001"/>
<path d="M6.09001 1.53H7.62001V0H4.57001V3.05H6.09001V1.53Z" fill="#000001"/>
<path d="M4.56999 25.91H3.04999V27.43H4.56999V25.91Z" fill="#000001"/>
<path d="M6.08999 18.29H3.04999V19.81H6.08999V18.29Z" fill="#000001"/>
<path d="M4.56999 3.05005H3.04999V13.72H4.56999V3.05005Z" fill="#000001"/>
<path d="M3.04999 22.86H1.51999V25.91H3.04999V22.86Z" fill="#000001"/>
<path d="M3.05 21.34V19.81H1.52V16.77H0V22.86H1.52V21.34H3.05Z" fill="#000001"/>
<path d="M3.04999 13.72H1.51999V16.77H3.04999V13.72Z" fill="#000001"/>
</g>
<defs>
<clipPath id="clip0_1135_2398">
<rect width="32" height="32" fill="white"/>
</clipPath>
</defs>
</svg>
