<svg width="32" height="32" viewBox="0 0 32 32" fill="none" xmlns="http://www.w3.org/2000/svg">
<g clip-path="url(#clip0_1128_8113)">
<path d="M2.29001 31.235H3.81001V29.715H5.33001V28.195H3.81001V26.665H2.29001V28.195H0.76001V29.715H2.29001V31.235Z" fill="#000001"/>
<path d="M6.85996 9.905H5.32996V16.005H6.85996V9.905Z" fill="#000001"/>
<path d="M8.38006 26.665V25.145H9.90006V22.095H8.38006V20.575H5.33006V22.095H3.81006V25.145H5.33006V26.665H8.38006Z" fill="#000001"/>
<path d="M8.37999 16.005H6.85999V17.525H8.37999V16.005Z" fill="#000001"/>
<path d="M8.37999 6.855H6.85999V9.905H8.37999V6.855Z" fill="#000001"/>
<path d="M9.9 17.525H8.38V19.045H9.9V17.525Z" fill="#000001"/>
<path d="M9.9 3.80499H8.38V6.85499H9.9V3.80499Z" fill="#000001"/>
<path d="M12.95 19.045H9.90002V20.575H12.95V19.045Z" fill="#000001"/>
<path d="M12.9501 11.425H11.4301V12.955H12.9501V11.425Z" fill="#000001"/>
<path d="M12.95 2.285H9.90002V3.805H12.95V2.285Z" fill="#000001"/>
<path d="M23.62 0.764999H12.95V2.285H23.62V0.764999Z" fill="#000001"/>
<path d="M19.05 11.425H17.52V12.955H19.05V11.425Z" fill="#000001"/>
<path d="M23.62 20.575H12.95V22.095H23.62V20.575Z" fill="#000001"/>
<path d="M26.67 19.045H23.62V20.575H26.67V19.045Z" fill="#000001"/>
<path d="M25.14 11.425H23.62V12.955H25.14V11.425Z" fill="#000001"/>
<path d="M26.67 2.285H23.62V3.805H26.67V2.285Z" fill="#000001"/>
<path d="M28.19 17.525H26.67V19.045H28.19V17.525Z" fill="#000001"/>
<path d="M28.19 3.80499H26.67V5.33499H28.19V3.80499Z" fill="#000001"/>
<path d="M29.7101 14.475H28.1901V17.525H29.7101V14.475Z" fill="#000001"/>
<path d="M29.7101 5.33501H28.1901V8.38501H29.7101V5.33501Z" fill="#000001"/>
<path d="M31.24 8.38499H29.71V14.475H31.24V8.38499Z" fill="#000001"/>
</g>
<defs>
<clipPath id="clip0_1128_8113">
<rect width="32" height="32" fill="white"/>
</clipPath>
</defs>
</svg>
