<svg width="32" height="32" viewBox="0 0 32 32" fill="none" xmlns="http://www.w3.org/2000/svg">
<path d="M27.43 30.47V3.04H25.91V1.52H27.43V3.04H28.95V0H3.04999V3.04H4.56999V1.52H6.09999V3.04H4.56999V30.47H1.51999V32H30.48V30.47H27.43ZM22.86 1.52H24.38V3.04H22.86V1.52ZM19.81 1.52H21.33V3.04H19.81V1.52ZM16.76 1.52H18.29V3.04H16.76V1.52ZM13.71 1.52H15.24V3.04H13.71V1.52ZM10.67 1.52H12.19V3.04H10.67V1.52ZM7.61999 1.52H9.13999V3.04H7.61999V1.52ZM10.67 30.47H6.09999V25.9H10.67V30.47ZM10.67 24.38H6.09999V22.85H10.67V24.38ZM15.24 30.47H12.19V22.85H15.24V30.47ZM19.81 30.47H16.76V22.85H19.81V30.47ZM25.91 30.47H21.33V25.9H25.91V30.47ZM25.91 24.38H21.33V22.85H25.91V24.38ZM25.91 21.33H6.09999V4.57H25.91V21.33Z" fill="#000001"/>
<path d="M24.38 13.71H19.81V19.81H24.38V13.71ZM22.86 16.76H21.33V15.24H22.86V16.76Z" fill="#000001"/>
<path d="M24.38 12.19V6.08997H19.81V12.19H24.38ZM21.33 7.61997H22.86V9.13997H21.33V7.61997Z" fill="#000001"/>
<path d="M18.29 13.71H13.71V19.81H18.29V13.71ZM16.76 16.76H15.24V15.24H16.76V16.76Z" fill="#000001"/>
<path d="M18.29 12.19V6.08997H13.71V12.19H18.29ZM15.24 7.61997H16.76V9.13997H15.24V7.61997Z" fill="#000001"/>
<path d="M12.19 13.71H7.62V19.81H12.19V13.71ZM10.67 16.76H9.14V15.24H10.67V16.76Z" fill="#000001"/>
<path d="M12.19 12.19V6.08997H7.62V12.19H12.19ZM9.14 7.61997H10.67V9.13997H9.14V7.61997Z" fill="#000001"/>
</svg>
