<svg width="32" height="32" viewBox="0 0 32 32" fill="none" xmlns="http://www.w3.org/2000/svg">
<g clip-path="url(#clip0_1128_7946)">
<path d="M22.1 15.24V16.76H19.05V18.29H9.91003V19.81H14.48V21.33H16V22.86H17.53V24.38H23.62V25.9H25.15V27.43H26.67V28.95H28.19V22.86H29.72V21.33H31.24V15.24H29.72V13.71H28.19V12.19H25.15V7.62H23.62V15.24H22.1Z" fill="#000001"/>
<path d="M23.62 6.09H22.1V7.62H23.62V6.09Z" fill="#000001"/>
<path d="M20.57 10.67H17.53V13.71H20.57V10.67Z" fill="#000001"/>
<path d="M22.1 4.57H19.05V6.09H22.1V4.57Z" fill="#000001"/>
<path d="M14.4801 10.67H11.4301V13.71H14.4801V10.67Z" fill="#000001"/>
<path d="M9.91 19.81H8.38V21.33H9.91V19.81Z" fill="#000001"/>
<path d="M19.05 3.05H6.85999V4.57H19.05V3.05Z" fill="#000001"/>
<path d="M6.85997 18.29H5.33997V24.38H6.85997V22.86H8.37997V21.33H6.85997V18.29Z" fill="#000001"/>
<path d="M8.37997 10.67H5.33997V13.71H8.37997V10.67Z" fill="#000001"/>
<path d="M6.86006 4.57H3.81006V6.09H6.86006V4.57Z" fill="#000001"/>
<path d="M5.34006 16.76H3.81006V18.29H5.34006V16.76Z" fill="#000001"/>
<path d="M3.81004 15.24H2.29004V16.76H3.81004V15.24Z" fill="#000001"/>
<path d="M3.81004 6.09H2.29004V7.62H3.81004V6.09Z" fill="#000001"/>
<path d="M2.29001 7.62H0.76001V15.24H2.29001V7.62Z" fill="#000001"/>
</g>
<defs>
<clipPath id="clip0_1128_7946">
<rect width="32" height="32" fill="white"/>
</clipPath>
</defs>
</svg>
