<svg width="32" height="32" viewBox="0 0 32 32" fill="none" xmlns="http://www.w3.org/2000/svg">
<path d="M30.475 12.19H28.955V15.24H27.425V13.72H25.905V12.19H28.955V10.67H25.905V9.14001H24.385V15.24H22.855V16.76H9.145V15.24H7.615V9.14001H6.1V10.67H3.045V12.19H6.1V13.72H4.575V15.24H3.045V12.19H1.525V16.76H3.045V18.29H6.1V28.95H7.62V30.48H9.15V32H22.86V30.48H24.39V28.95H25.91V18.29H28.96V16.76H30.48L30.475 12.19ZM24.385 21.34H7.615V19.81H24.385V21.34Z" fill="#000001"/>
<path d="M24.385 7.62H22.855V9.14H24.385V7.62Z" fill="#000001"/>
<path d="M24.385 1.53H22.855V4.57H24.385V1.53Z" fill="#000001"/>
<path d="M22.855 4.57001H21.335V7.62001H22.855V4.57001Z" fill="#000001"/>
<path d="M22.855 0H19.805V1.53H22.855V0Z" fill="#000001"/>
<path d="M21.335 10.67H19.805V12.19H21.335V10.67Z" fill="#000001"/>
<path d="M19.805 1.53H18.285V4.57H19.805V1.53Z" fill="#000001"/>
<path d="M18.285 4.57001H16.765V6.10001H18.285V4.57001Z" fill="#000001"/>
<path d="M15.235 15.24H16.765V13.72H18.285V12.19H13.715V13.72H15.235V15.24Z" fill="#000001"/>
<path d="M16.765 6.10001H15.235V7.62001H16.765V6.10001Z" fill="#000001"/>
<path d="M15.235 4.57001H13.715V6.10001H15.235V4.57001Z" fill="#000001"/>
<path d="M13.715 1.53H12.185V4.57H13.715V1.53Z" fill="#000001"/>
<path d="M12.185 10.67H10.665V12.19H12.185V10.67Z" fill="#000001"/>
<path d="M12.185 0H9.145V1.53H12.185V0Z" fill="#000001"/>
<path d="M10.665 4.57001H9.145V7.62001H10.665V4.57001Z" fill="#000001"/>
<path d="M9.145 7.62H7.615V9.14H9.145V7.62Z" fill="#000001"/>
<path d="M9.145 1.53H7.615V4.57H9.145V1.53Z" fill="#000001"/>
</svg>
