<svg width="32" height="32" viewBox="0 0 32 32" fill="none" xmlns="http://www.w3.org/2000/svg">
<g clip-path="url(#clip0_1128_6434)">
<path d="M12.955 0V1.52H9.90503V3.05H12.955V4.57H14.475V3.05H17.525V4.57H19.045V3.05H22.095V4.57H23.625V3.05H25.145V6.1H26.665V4.57H28.195V30.48H11.435V32H29.715V30.48H31.235V4.57H29.715V3.05H28.195V1.52H23.625V0H22.095V1.52H19.045V0H17.525V1.52H14.475V0H12.955Z" fill="#000001"/>
<path d="M25.145 6.10001H23.625V9.14001H25.145V6.10001Z" fill="#000001"/>
<path d="M22.095 12.19H26.665V10.67H23.625V9.14001H22.095V12.19Z" fill="#000001"/>
<path d="M20.575 15.24H19.045V18.29H20.575V16.76H26.665V15.24H22.095V12.19H20.575V15.24Z" fill="#000001"/>
<path d="M17.525 21.33H26.665V19.81H19.045V18.29H17.525V21.33Z" fill="#000001"/>
<path d="M17.525 12.19H16.005V13.72H17.525V12.19Z" fill="#000001"/>
<path d="M17.525 9.14001H16.005V10.67H17.525V9.14001Z" fill="#000001"/>
<path d="M26.665 24.38H12.955V25.91H26.665V24.38Z" fill="#000001"/>
<path d="M16.0051 13.72H11.4351V15.24H16.0051V13.72Z" fill="#000001"/>
<path d="M12.9551 9.14001H11.4351V10.67H12.9551V9.14001Z" fill="#000001"/>
<path d="M11.435 22.86H17.525V21.33H2.28503V22.86H9.90503V30.48H11.435V22.86Z" fill="#000001"/>
<path d="M11.435 12.19H9.90503V13.72H11.435V12.19Z" fill="#000001"/>
<path d="M9.90501 3.04999H8.38501V6.09999H9.90501V3.04999Z" fill="#000001"/>
<path d="M8.38498 6.10001H6.85498V9.14001H8.38498V6.10001Z" fill="#000001"/>
<path d="M6.85496 9.14001H5.33496V12.19H6.85496V9.14001Z" fill="#000001"/>
<path d="M5.33506 12.19H3.81506V15.24H5.33506V12.19Z" fill="#000001"/>
<path d="M3.81503 15.24H2.28503V18.29H3.81503V15.24Z" fill="#000001"/>
<path d="M2.28501 18.29H0.765015V21.33H2.28501V18.29Z" fill="#000001"/>
</g>
<defs>
<clipPath id="clip0_1128_6434">
<rect width="32" height="32" fill="white"/>
</clipPath>
</defs>
</svg>
