<svg width="32" height="32" viewBox="0 0 32 32" fill="none" xmlns="http://www.w3.org/2000/svg">
<path d="M30.475 22.86H25.905V21.33H27.425V19.81H4.57502V21.33H6.10002V22.86H1.52502V32H30.475V22.86ZM7.61502 21.33H24.375V22.86H7.61502V21.33ZM28.955 30.48H3.04502V24.38H28.955V30.48Z" fill="#000001"/>
<path d="M28.955 1.52H27.425V19.81H28.955V1.52Z" fill="#000001"/>
<path d="M22.855 28.95H24.375V27.43H25.905V25.9H18.285V27.43H22.855V28.95Z" fill="#000001"/>
<path d="M21.335 6.10001H19.805V7.62001H21.335V6.10001Z" fill="#000001"/>
<path d="M12.185 6.10001H10.665V7.62001H12.185V6.10001Z" fill="#000001"/>
<path d="M21.335 9.14H19.805V7.62H12.185V9.14H10.665V10.67H9.14502V15.24H10.665V12.19H12.185V15.24H13.715V13.71H18.285V15.24H19.805V12.19H21.335V15.24H22.855V10.67H21.335V9.14ZM15.235 10.67H13.715V9.14H15.235V10.67ZM18.285 10.67H16.765V9.14H18.285V10.67Z" fill="#000001"/>
<path d="M6.10004 18.29H25.91V3.05H6.10004V18.29ZM7.61504 4.57H24.375V16.76H7.61504V4.57Z" fill="#000001"/>
<path d="M7.61503 25.9H6.09503V27.43H7.61503V25.9Z" fill="#000001"/>
<path d="M27.425 0H4.57501V1.52H27.425V0Z" fill="#000001"/>
<path d="M4.57504 1.52H3.04504V19.81H4.57504V1.52Z" fill="#000001"/>
</svg>
