<svg width="32" height="32" viewBox="0 0 32 32" fill="none" xmlns="http://www.w3.org/2000/svg">
<g clip-path="url(#clip0_1128_6654)">
<path d="M30.48 7.62505H1.53V3.05505H0V28.9551H1.53V9.14505H30.48V28.9551H32V3.05505H30.48V7.62505Z" fill="#000001"/>
<path d="M30.48 28.955H1.53003V30.475H30.48V28.955Z" fill="#000001"/>
<path d="M27.43 19.815H25.91V24.385H27.43V19.815Z" fill="#000001"/>
<path d="M25.91 24.385H24.38V25.905H25.91V24.385Z" fill="#000001"/>
<path d="M25.91 18.285H24.38V19.815H25.91V18.285Z" fill="#000001"/>
<path d="M24.38 25.905H19.81V27.435H24.38V25.905Z" fill="#000001"/>
<path d="M24.38 18.285V16.765H22.86V10.675H4.57001V19.815H7.62001V18.285H6.10001V12.195H21.34V16.765H19.81V18.285H24.38Z" fill="#000001"/>
<path d="M19.81 24.385H18.29V25.905H19.81V24.385Z" fill="#000001"/>
<path d="M19.81 18.285H18.29V19.815H19.81V18.285Z" fill="#000001"/>
<path d="M18.29 19.815H16.76V24.385H18.29V19.815Z" fill="#000001"/>
<path d="M10.67 4.57501H9.14001V6.09501H10.67V4.57501Z" fill="#000001"/>
<path d="M6.10001 21.335V22.865H4.57001V24.385H15.24V19.815H13.72V18.285H12.19V16.765H10.67V18.285H9.14001V19.815H7.62001V21.335H6.10001Z" fill="#000001"/>
<path d="M7.61998 4.57501H6.09998V6.09501H7.61998V4.57501Z" fill="#000001"/>
<path d="M4.56999 4.57501H3.04999V6.09501H4.56999V4.57501Z" fill="#000001"/>
<path d="M30.48 1.52502H1.53003V3.05502H30.48V1.52502Z" fill="#000001"/>
</g>
<defs>
<clipPath id="clip0_1128_6654">
<rect width="32" height="32" fill="white"/>
</clipPath>
</defs>
</svg>
