<svg width="32" height="32" viewBox="0 0 32 32" fill="none" xmlns="http://www.w3.org/2000/svg">
<g clip-path="url(#clip0_1135_3046)">
<path d="M19.05 13.72V15.24H20.57V21.34H22.09V15.24H29.71V24.38H31.24V7.62H29.71V13.72H19.05Z" fill="#000001"/>
<path d="M29.7101 24.38H28.1901V25.91H29.7101V24.38Z" fill="#000001"/>
<path d="M29.7101 6.10004H28.1901V7.62004H29.7101V6.10004Z" fill="#000001"/>
<path d="M28.19 9.15002H26.67V10.67H28.19V9.15002Z" fill="#000001"/>
<path d="M28.1901 25.91H3.81006V27.43H28.1901V25.91Z" fill="#000001"/>
<path d="M26.67 10.67H22.09V12.19H26.67V10.67Z" fill="#000001"/>
<path d="M26.67 7.62H22.09V9.14999H26.67V7.62Z" fill="#000001"/>
<path d="M22.0901 9.15002H20.5701V10.67H22.0901V9.15002Z" fill="#000001"/>
<path d="M20.57 21.34H19.05V22.86H20.57V21.34Z" fill="#000001"/>
<path d="M28.19 4.57001H17.52V6.10001H28.19V4.57001Z" fill="#000001"/>
<path d="M14.48 21.34H17.52V19.81H19.05V16.76H17.52V18.29H16V16.76H17.52V15.24H14.48V16.76H12.95V19.81H14.48V21.34Z" fill="#000001"/>
<path d="M19.05 12.19H12.95V13.72H19.05V12.19Z" fill="#000001"/>
<path d="M19.05 22.86H12.95V24.38H19.05V22.86Z" fill="#000001"/>
<path d="M17.52 6.10004H16V7.62004H17.52V6.10004Z" fill="#000001"/>
<path d="M12.9501 21.34H11.4301V22.86H12.9501V21.34Z" fill="#000001"/>
<path d="M12.95 4.57001H8.38V6.10001H12.95V4.57001Z" fill="#000001"/>
<path d="M8.37996 10.67H5.32996V12.19H8.37996V10.67Z" fill="#000001"/>
<path d="M16.0001 9.15004V7.62004H14.4801V6.10004H12.9501V7.62004H8.38006V6.10004H6.86006V7.62004H3.81006V9.15004H16.0001Z" fill="#000001"/>
<path d="M3.81003 24.38H2.28003V25.91H3.81003V24.38Z" fill="#000001"/>
<path d="M3.81003 9.15002H2.28003V10.67H3.81003V9.15002Z" fill="#000001"/>
<path d="M2.28001 15.24H9.90001V21.34H11.43V15.24H12.95V13.72H2.28001V10.67H0.76001V24.38H2.28001V15.24Z" fill="#000001"/>
</g>
<defs>
<clipPath id="clip0_1135_3046">
<rect width="32" height="32" fill="white"/>
</clipPath>
</defs>
</svg>
