<svg width="32" height="32" viewBox="0 0 32 32" fill="none" xmlns="http://www.w3.org/2000/svg">
<g clip-path="url(#clip0_1128_7916)">
<path d="M30.48 12.19V10.67H28.95V9.14H27.43V6.1H25.91V18.29H27.43V16.76H28.95V15.24H30.48V28.95H32V12.19H30.48Z" fill="#000001"/>
<path d="M30.4799 28.95H28.95V30.48H30.4799V28.95Z" fill="#000001"/>
<path d="M28.9501 30.48H3.05005V32H28.9501V30.48Z" fill="#000001"/>
<path d="M25.91 18.29H24.38V19.81H25.91V18.29Z" fill="#000001"/>
<path d="M24.38 25.91H22.86V27.43H24.38V25.91Z" fill="#000001"/>
<path d="M24.38 19.81H22.86V21.33H24.38V19.81Z" fill="#000001"/>
<path d="M22.86 24.38H21.33V25.91H22.86V24.38Z" fill="#000001"/>
<path d="M22.86 21.33H21.33V22.86H22.86V21.33Z" fill="#000001"/>
<path d="M22.86 10.67H21.33V15.24H22.86V10.67Z" fill="#000001"/>
<path d="M21.3301 9.14H19.8101V10.67H21.3301V9.14Z" fill="#000001"/>
<path d="M21.33 22.86H10.67V24.38H21.33V22.86Z" fill="#000001"/>
<path d="M21.33 15.24H18.29V16.76H21.33V15.24Z" fill="#000001"/>
<path d="M18.29 10.67H13.72V12.19H16.76V15.24H18.29V10.67Z" fill="#000001"/>
<path d="M16.76 15.24H13.72V16.76H16.76V15.24Z" fill="#000001"/>
<path d="M19.8099 7.62H12.1899V9.14H19.8099V7.62Z" fill="#000001"/>
<path d="M19.8099 18.29H12.1899V19.81H19.8099V18.29Z" fill="#000001"/>
<path d="M13.7199 12.19H12.1899V15.24H13.7199V12.19Z" fill="#000001"/>
<path d="M12.19 16.76H10.67V18.29H12.19V16.76Z" fill="#000001"/>
<path d="M12.19 9.14H10.67V10.67H12.19V9.14Z" fill="#000001"/>
<path d="M10.67 24.38H9.14001V25.91H10.67V24.38Z" fill="#000001"/>
<path d="M10.67 21.33H9.14001V22.86H10.67V21.33Z" fill="#000001"/>
<path d="M10.67 10.67H9.14001V16.76H10.67V10.67Z" fill="#000001"/>
<path d="M9.14 25.91H7.62V27.43H9.14V25.91Z" fill="#000001"/>
<path d="M9.14 19.81H7.62V21.33H9.14V19.81Z" fill="#000001"/>
<path d="M25.91 6.1V4.57H22.86V3.05H21.33V1.52H19.81V0H12.19V1.52H10.67V3.05H9.13998V4.57H6.09998V6.1H25.91Z" fill="#000001"/>
<path d="M7.61998 18.29H6.09998V19.81H7.61998V18.29Z" fill="#000001"/>
<path d="M3.05002 28.95H1.52002V30.48H3.05002V28.95Z" fill="#000001"/>
<path d="M1.52 15.24H3.05V16.76H4.57V18.29H6.1V6.1H4.57V9.14H3.05V10.67H1.52V12.19H0V28.95H1.52V15.24Z" fill="#000001"/>
</g>
<defs>
<clipPath id="clip0_1128_7916">
<rect width="32" height="32" fill="white"/>
</clipPath>
</defs>
</svg>
