<svg width="32" height="32" viewBox="0 0 32 32" fill="none" xmlns="http://www.w3.org/2000/svg">
<g clip-path="url(#clip0_1128_8300)">
<path d="M32 3.05005H30.47V28.9501H32V3.05005Z" fill="#000001"/>
<path d="M30.4699 28.95H28.95V30.4799H30.4699V28.95Z" fill="#000001"/>
<path d="M30.4699 1.52002H28.95V3.05002H30.4699V1.52002Z" fill="#000001"/>
<path d="M28.95 30.48H3.04004V32H28.95V30.48Z" fill="#000001"/>
<path d="M27.42 25.9H25.9V28.95H27.42V25.9Z" fill="#000001"/>
<path d="M24.38 4.56995V10.6699H25.9V19.8099H27.42V10.6699H28.95V4.56995H24.38ZM27.42 9.13995H25.9V6.09995H27.42V9.13995Z" fill="#000001"/>
<path d="M25.9 19.8101H24.38V21.3301H25.9V19.8101Z" fill="#000001"/>
<path d="M24.38 25.9H22.85V28.95H24.38V25.9Z" fill="#000001"/>
<path d="M22.85 18.2899H24.38V12.1899H22.85V9.13995H21.33V7.61995H19.8V6.09995H16.76V4.56995H10.66V6.09995H7.61004V7.61995H6.09004V9.13995H4.57004V12.1899H3.04004V18.2899H4.57004V21.3299H6.09004V22.8599H7.61004V24.3799H10.66V25.8999H16.76V24.3799H19.8V22.8599H15.23V21.3299H19.8V22.8599H24.38V21.3299H22.85V18.2899ZM15.23 16.7599H12.19V13.7099H15.23V16.7599ZM21.33 13.7099H19.8V10.6699H18.28V9.13995H15.23V7.61995H18.28V9.13995H19.8V10.6699H21.33V13.7099Z" fill="#000001"/>
<path d="M9.13999 27.4301H7.60999V28.9501H9.13999V27.4301Z" fill="#000001"/>
<path d="M6.08995 27.4301H4.56995V28.9501H6.08995V27.4301Z" fill="#000001"/>
<path d="M28.95 0H3.04004V1.52H28.95V0Z" fill="#000001"/>
<path d="M3.04002 28.95H1.52002V30.4799H3.04002V28.95Z" fill="#000001"/>
<path d="M3.04002 1.52002H1.52002V3.05002H3.04002V1.52002Z" fill="#000001"/>
<path d="M1.52 3.05005H0V28.9501H1.52V3.05005Z" fill="#000001"/>
</g>
<defs>
<clipPath id="clip0_1128_8300">
<rect width="32" height="32" fill="white"/>
</clipPath>
</defs>
</svg>
