<svg width="32" height="32" viewBox="0 0 32 32" fill="none" xmlns="http://www.w3.org/2000/svg">
<path d="M30.4751 6.09998H28.9451V12.19H30.4751V6.09998Z" fill="#000001"/>
<path d="M28.945 12.1899H27.425V16.7599H28.945V12.1899Z" fill="#000001"/>
<path d="M27.425 16.76H25.905V22.86H27.425V16.76Z" fill="#000001"/>
<path d="M25.905 22.86H24.375V28.95H25.905V22.86Z" fill="#000001"/>
<path d="M22.8551 6.10002H28.9451V4.57002H22.8551V1.52002H21.3251V30.48H24.3751V28.95H22.8551V6.10002Z" fill="#000001"/>
<path d="M21.325 30.48H3.04504V32H21.325V30.48Z" fill="#000001"/>
<path d="M19.805 25.9H18.285V28.95H19.805V25.9Z" fill="#000001"/>
<path d="M13.715 9.14001H10.665V12.19H7.61499V15.24H10.665V16.76H9.13499V18.29H15.235V16.76H13.715V15.24H16.755V12.19H13.715V9.14001Z" fill="#000001"/>
<path d="M6.09506 3.05005H4.56506V6.10005H6.09506V3.05005Z" fill="#000001"/>
<path d="M21.325 0H3.04504V1.52H21.325V0Z" fill="#000001"/>
<path d="M3.04502 1.52002H1.52502V30.48H3.04502V1.52002Z" fill="#000001"/>
</svg>
