<svg width="32" height="32" viewBox="0 0 32 32" fill="none" xmlns="http://www.w3.org/2000/svg">
<g clip-path="url(#clip0_1128_8905)">
<path d="M32 18.285H30.47V21.335H32V18.285Z" fill="#000001"/>
<path d="M32 10.665H30.47V13.715H32V10.665Z" fill="#000001"/>
<path d="M30.47 16.765H28.95V18.285H30.47V16.765Z" fill="#000001"/>
<path d="M30.47 13.715H28.95V15.235H30.47V13.715Z" fill="#000001"/>
<path d="M30.47 9.14502H27.42V10.665H30.47V9.14502Z" fill="#000001"/>
<path d="M30.47 21.335H27.42V22.855H30.47V21.335Z" fill="#000001"/>
<path d="M28.95 15.235H27.42V16.765H28.95V15.235Z" fill="#000001"/>
<path d="M27.42 19.805H25.9V21.335H27.42V19.805Z" fill="#000001"/>
<path d="M27.42 10.665H25.9V12.185H27.42V10.665Z" fill="#000001"/>
<path d="M25.9 18.285H24.38V19.805H25.9V18.285Z" fill="#000001"/>
<path d="M25.9 12.185H24.38V13.715H25.9V12.185Z" fill="#000001"/>
<path d="M24.38 19.805H22.85V21.335H24.38V19.805Z" fill="#000001"/>
<path d="M24.38 10.665H22.85V12.185H24.38V10.665Z" fill="#000001"/>
<path d="M22.85 21.335H21.33V22.855H22.85V21.335Z" fill="#000001"/>
<path d="M22.85 9.14502H21.33V10.665H22.85V9.14502Z" fill="#000001"/>
<path d="M21.33 22.855H19.81V24.385H21.33V22.855Z" fill="#000001"/>
<path d="M21.33 7.61499H19.81V9.14499H21.33V7.61499Z" fill="#000001"/>
<path d="M19.81 24.385H16.76V25.905H19.81V24.385Z" fill="#000001"/>
<path d="M19.81 6.09503H16.76V7.61503H19.81V6.09503Z" fill="#000001"/>
<path d="M16.76 25.905H10.66V27.425H16.76V25.905Z" fill="#000001"/>
<path d="M16.76 4.57501H10.66V6.09501H16.76V4.57501Z" fill="#000001"/>
<path d="M10.66 24.385H6.09003V25.905H10.66V24.385Z" fill="#000001"/>
<path d="M10.66 6.09503H6.09003V7.61503H10.66V6.09503Z" fill="#000001"/>
<path d="M6.08998 22.855H3.03998V24.385H6.08998V22.855Z" fill="#000001"/>
<path d="M7.61001 15.235H4.57001V18.285H7.61001V15.235Z" fill="#000001"/>
<path d="M6.08998 7.61499H3.03998V9.14499H6.08998V7.61499Z" fill="#000001"/>
<path d="M3.04002 19.805H1.52002V22.855H3.04002V19.805Z" fill="#000001"/>
<path d="M3.04002 9.14502H1.52002V12.185H3.04002V9.14502Z" fill="#000001"/>
<path d="M1.52 12.185H0V19.805H1.52V12.185Z" fill="#000001"/>
</g>
<defs>
<clipPath id="clip0_1128_8905">
<rect width="32" height="32" fill="white"/>
</clipPath>
</defs>
</svg>
