<svg width="32" height="32" viewBox="0 0 32 32" fill="none" xmlns="http://www.w3.org/2000/svg">
<path d="M31.235 12.955H29.715V19.045H31.235V12.955Z" fill="#000001"/>
<path d="M9.90506 12.9551H11.4251V11.4251H12.9551V9.90505H19.0451V11.4251H20.5751V9.90505H25.1451V11.4251H26.6651V23.6151H28.1951V20.5751H29.7151V19.0451H28.1951V12.9551H29.7151V11.4251H28.1951V5.33505H26.6651V6.85505H25.1451V5.33505H22.0951V3.80505H11.4251V5.33505H9.90506V6.85505H8.38506V9.90505H6.85506V5.33505H5.33506V9.90505H3.81506V11.4251H9.90506V12.9551Z" fill="#000001"/>
<path d="M26.665 23.615H25.145V25.145H26.665V23.615Z" fill="#000001"/>
<path d="M26.665 3.80505H25.145V5.33505H26.665V3.80505Z" fill="#000001"/>
<path d="M25.145 20.5751H23.615V22.0951H25.145V20.5751Z" fill="#000001"/>
<path d="M25.145 15.995H23.615V19.045H25.145V15.995Z" fill="#000001"/>
<path d="M25.145 2.28503H23.615V3.80503H25.145V2.28503Z" fill="#000001"/>
<path d="M11.425 25.145V28.2H8.38496V29.72H5.33496V31.24H29.715V29.72H26.665V28.2H23.615V26.67H25.145V25.15L11.425 25.145ZM22.095 29.715H16.005V28.2H12.955V26.67H22.1L22.095 29.715Z" fill="#000001"/>
<path d="M23.615 22.095H19.045V23.615H23.615V22.095Z" fill="#000001"/>
<path d="M19.045 20.5751H17.525V22.0951H19.045V20.5751Z" fill="#000001"/>
<path d="M17.525 15.995H16.005V19.045H17.525V15.995Z" fill="#000001"/>
<path d="M19.045 11.425H16.005V12.955H19.045V11.425Z" fill="#000001"/>
<path d="M12.955 12.955H11.425V19.045H12.955V12.955Z" fill="#000001"/>
<path d="M23.615 0.765015H9.90503V2.28501H23.615V0.765015Z" fill="#000001"/>
<path d="M11.425 23.615H9.90503V25.145H11.425V23.615Z" fill="#000001"/>
<path d="M11.425 19.045H9.90503V20.575H11.425V19.045Z" fill="#000001"/>
<path d="M3.81506 20.5751V22.0951H8.38506V23.6151H9.90506V20.5751H3.81506Z" fill="#000001"/>
<path d="M9.90501 2.28503H8.38501V3.80503H9.90501V2.28503Z" fill="#000001"/>
<path d="M8.38498 3.80505H6.85498V5.33505H8.38498V3.80505Z" fill="#000001"/>
<path d="M6.85496 12.955H5.33496V14.475H6.85496V12.955Z" fill="#000001"/>
<path d="M5.33506 14.475H3.81506V17.525H5.33506V14.475Z" fill="#000001"/>
<path d="M3.81503 19.045H2.28503V20.575H3.81503V19.045Z" fill="#000001"/>
<path d="M3.81503 11.425H2.28503V12.955H3.81503V11.425Z" fill="#000001"/>
<path d="M2.28501 12.955H0.765015V19.045H2.28501V12.955Z" fill="#000001"/>
</svg>
