<svg width="32" height="32" viewBox="0 0 32 32" fill="none" xmlns="http://www.w3.org/2000/svg">
<path d="M30.4751 7.62H28.9451V12.19H30.4751V7.62Z" fill="#000001"/>
<path d="M28.945 12.1899H27.425V13.7099H28.945V12.1899Z" fill="#000001"/>
<path d="M28.945 6.09998H24.375V7.61998H28.945V6.09998Z" fill="#000001"/>
<path d="M22.8551 13.7099V15.2399H24.3751V24.3799H22.8551V30.4799H21.3251V16.7599H22.8551V15.2399H16.7551V16.7599H18.2851V30.4799H15.2351V15.2399H13.7151V13.7099H10.6651V15.2399H12.1851V30.4799H10.6651V24.3799H9.13506V16.7599H10.6651V15.2399H7.61506V12.1899H4.56506V13.7099H6.09506V24.3799H7.61506V30.4799H9.13506V31.9999H24.3751V30.4799H25.9051V24.3799H27.4251V13.7099H22.8551Z" fill="#000001"/>
<path d="M25.905 10.67H24.375V12.19H25.905V10.67Z" fill="#000001"/>
<path d="M24.375 7.62H22.855V9.14H24.375V7.62Z" fill="#000001"/>
<path d="M22.8551 4.56995H21.3251V7.61995H22.8551V4.56995Z" fill="#000001"/>
<path d="M21.3251 9.14001H19.8051V10.67H21.3251V9.14001Z" fill="#000001"/>
<path d="M21.3251 3.05005H19.8051V4.57005H21.3251V3.05005Z" fill="#000001"/>
<path d="M19.805 1.52002H16.755V3.05002H19.805V1.52002Z" fill="#000001"/>
<path d="M19.805 10.67H16.755V12.19H19.805V10.67Z" fill="#000001"/>
<path d="M16.755 13.71H15.235V15.24H16.755V13.71Z" fill="#000001"/>
<path d="M16.755 9.14001H15.235V10.67H16.755V9.14001Z" fill="#000001"/>
<path d="M16.755 3.05005H15.235V4.57005H16.755V3.05005Z" fill="#000001"/>
<path d="M15.235 1.52002H13.715V3.05002H15.235V1.52002Z" fill="#000001"/>
<path d="M12.185 6.09998H10.665V7.61998H12.185V6.09998Z" fill="#000001"/>
<path d="M13.715 0H9.13501V1.52H13.715V0Z" fill="#000001"/>
<path d="M10.665 10.67H9.13501V12.19H10.665V10.67Z" fill="#000001"/>
<path d="M10.665 4.56995H7.61499V6.09995H10.665V4.56995Z" fill="#000001"/>
<path d="M9.13497 1.52002H6.09497V3.05002H9.13497V1.52002Z" fill="#000001"/>
<path d="M7.61497 6.09998H6.09497V7.61998H7.61497V6.09998Z" fill="#000001"/>
<path d="M6.09504 3.05005H3.04504V4.57005H6.09504V3.05005Z" fill="#000001"/>
<path d="M4.56504 9.14001H3.04504V12.19H4.56504V9.14001Z" fill="#000001"/>
<path d="M3.04502 4.56995H1.52502V9.13995H3.04502V4.56995Z" fill="#000001"/>
</svg>
