<svg width="32" height="32" viewBox="0 0 32 32" fill="none" xmlns="http://www.w3.org/2000/svg">
<g clip-path="url(#clip0_43_2)">
<path d="M27.43 0V32H32V0H27.43ZM30.48 30.48H28.96V28.96H30.48V30.48ZM30.48 27.43H28.96V25.91H30.48V27.43ZM30.48 24.38H28.96V22.86H30.48V24.38ZM30.48 21.34H28.96V19.81H30.48V21.34ZM30.48 18.29H28.96V16.77H30.48V18.29ZM30.48 15.24H28.96V13.72H30.48V15.24ZM30.48 12.19H28.96V10.67H30.48V12.19ZM30.48 9.15H28.96V7.62H30.48V9.15ZM30.48 6.1H28.96V4.58H30.48V6.1ZM30.48 3.05H28.96V1.53H30.48V3.05Z" fill="#FFFFFF"/>
<path d="M25.91 30.48H24.39V32H25.91V30.48Z" fill="#FFFFFF"/>
<path d="M25.91 13.72H24.39V24.38H25.91V13.72Z" fill="#FFFFFF"/>
<path d="M25.91 0H24.39V7.62H25.91V0Z" fill="#FFFFFF"/>
<path d="M24.39 28.96H7.62V30.48H24.39V28.96Z" fill="#FFFFFF"/>
<path d="M24.39 24.38H7.62V25.91H24.39V24.38Z" fill="#FFFFFF"/>
<path d="M22.86 19.81H21.34V21.34H22.86V19.81Z" fill="#FFFFFF"/>
<path d="M24.39 7.62H7.62V9.14999H24.39V7.62Z" fill="#FFFFFF"/>
<path d="M21.34 16.77H19.81V18.29H21.34V16.77Z" fill="#FFFFFF"/>
<path d="M21.34 21.34H16.77V22.86H21.34V21.34Z" fill="#FFFFFF"/>
<path d="M18.29 16.77H16.77V18.29H18.29V16.77Z" fill="#FFFFFF"/>
<path d="M16.77 19.81H15.24V21.34H16.77V19.81Z" fill="#FFFFFF"/>
<path d="M24.39 12.19H7.62V13.72H24.39V12.19Z" fill="#FFFFFF"/>
<path d="M7.62001 30.48H6.10001V32H7.62001V30.48Z" fill="#FFFFFF"/>
<path d="M7.62001 13.72H6.10001V24.38H7.62001V13.72Z" fill="#FFFFFF"/>
<path d="M7.62001 0H6.10001V7.62H7.62001V0Z" fill="#FFFFFF"/>
<path d="M0 0V32H4.58V0H0ZM3.05 30.48H1.53V28.96H3.05V30.48ZM3.05 27.43H1.53V25.91H3.05V27.43ZM3.05 24.38H1.53V22.86H3.05V24.38ZM3.05 21.34H1.53V19.81H3.05V21.34ZM3.05 18.29H1.53V16.77H3.05V18.29ZM3.05 15.24H1.53V13.72H3.05V15.24ZM3.05 12.19H1.53V10.67H3.05V12.19ZM3.05 9.15H1.53V7.62H3.05V9.15ZM3.05 6.1H1.53V4.58H3.05V6.1ZM3.05 3.05H1.53V1.53H3.05V3.05Z" fill="#FFFFFF"/>
</g>
<defs>
<clipPath id="clip0_43_2">
<rect width="32" height="32" fill="white"/>
</clipPath>
</defs>
</svg>
