<svg width="32" height="32" viewBox="0 0 32 32" fill="none" xmlns="http://www.w3.org/2000/svg"><path d="M0 26H1V27H0Z" fill="#000001"/><path d="M1 26H2V27H1Z" fill="#000001"/><path d="M2 26H3V27H2Z" fill="#000001"/><path d="M3 26H4V27H3Z" fill="#000001"/><path d="M4 26H5V27H4Z" fill="#000001"/><path d="M5 26H6V27H5Z" fill="#000001"/><path d="M6 26H7V27H6Z" fill="#000001"/><path d="M7 26H8V27H7Z" fill="#000001"/><path d="M8 26H9V27H8Z" fill="#000001"/><path d="M9 26H10V27H9Z" fill="#000001"/><path d="M10 26H11V27H10Z" fill="#000001"/><path d="M11 26H12V27H11Z" fill="#000001"/><path d="M12 26H13V27H12Z" fill="#000001"/><path d="M13 26H14V27H13Z" fill="#000001"/><path d="M14 26H15V27H14Z" fill="#000001"/><path d="M15 26H16V27H15Z" fill="#000001"/><path d="M16 26H17V27H16Z" fill="#000001"/><path d="M17 26H18V27H17Z" fill="#000001"/><path d="M18 26H19V27H18Z" fill="#000001"/><path d="M19 26H20V27H19Z" fill="#000001"/><path d="M20 26H21V27H20Z" fill="#000001"/><path d="M21 26H22V27H21Z" fill="#000001"/><path d="M22 26H23V27H22Z" fill="#000001"/><path d="M23 26H24V27H23Z" fill="#000001"/><path d="M24 26H25V27H24Z" fill="#000001"/><path d="M25 26H26V27H25Z" fill="#000001"/><path d="M26 26H27V27H26Z" fill="#000001"/><path d="M27 26H28V27H27Z" fill="#000001"/><path d="M28 26H29V27H28Z" fill="#000001"/><path d="M29 26H30V27H29Z" fill="#000001"/><path d="M30 26H31V27H30Z" fill="#000001"/><path d="M31 26H32V27H31Z" fill="#000001"/><path d="M2 25H3V26H2Z" fill="#000001"/><path d="M3 25H4V26H3Z" fill="#000001"/><path d="M4 25H5V26H4Z" fill="#000001"/><path d="M5 25H6V26H5Z" fill="#000001"/><path d="M6 25H7V26H6Z" fill="#000001"/><path d="M7 25H8V26H7Z" fill="#000001"/><path d="M3 24H4V25H3Z" fill="#000001"/><path d="M4 24H5V25H4Z" fill="#000001"/><path d="M5 24H6V25H5Z" fill="#000001"/><path d="M6 24H7V25H6Z" fill="#000001"/><path d="M20 25H21V26H20Z" fill="#000001"/><path d="M21 25H22V26H21Z" fill="#000001"/><path d="M22 25H23V26H22Z" fill="#000001"/><path d="M23 25H24V26H23Z" fill="#000001"/><path d="M24 25H25V26H24Z" fill="#000001"/><path d="M25 25H26V26H25Z" fill="#000001"/><path d="M26 25H27V26H26Z" fill="#000001"/><path d="M21 24H22V25H21Z" fill="#000001"/><path d="M22 24H23V25H22Z" fill="#000001"/><path d="M23 24H24V25H23Z" fill="#000001"/><path d="M24 24H25V25H24Z" fill="#000001"/><path d="M25 24H26V25H25Z" fill="#000001"/><path d="M18 4H19V5H18Z" fill="#000001"/><path d="M18 5H19V6H18Z" fill="#000001"/><path d="M18 6H19V7H18Z" fill="#000001"/><path d="M18 7H19V8H18Z" fill="#000001"/><path d="M18 8H19V9H18Z" fill="#000001"/><path d="M18 9H19V10H18Z" fill="#000001"/><path d="M18 10H19V11H18Z" fill="#000001"/><path d="M18 11H19V12H18Z" fill="#000001"/><path d="M18 12H19V13H18Z" fill="#000001"/><path d="M18 13H19V14H18Z" fill="#000001"/><path d="M18 14H19V15H18Z" fill="#000001"/><path d="M18 15H19V16H18Z" fill="#000001"/><path d="M18 16H19V17H18Z" fill="#000001"/><path d="M18 17H19V18H18Z" fill="#000001"/><path d="M18 18H19V19H18Z" fill="#000001"/><path d="M18 19H19V20H18Z" fill="#000001"/><path d="M18 20H19V21H18Z" fill="#000001"/><path d="M18 21H19V22H18Z" fill="#000001"/><path d="M18 22H19V23H18Z" fill="#000001"/><path d="M18 23H19V24H18Z" fill="#000001"/><path d="M18 24H19V25H18Z" fill="#000001"/><path d="M18 25H19V26H18Z" fill="#000001"/><path d="M19 4H20V5H19Z" fill="#000001"/><path d="M20 4H21V5H20Z" fill="#000001"/><path d="M21 4H22V5H21Z" fill="#000001"/><path d="M22 4H23V5H22Z" fill="#000001"/><path d="M23 4H24V5H23Z" fill="#000001"/><path d="M24 4H25V5H24Z" fill="#000001"/><path d="M25 4H26V5H25Z" fill="#000001"/><path d="M19 5H20V6H19Z" fill="#000001"/><path d="M20 5H21V6H20Z" fill="#000001"/><path d="M21 5H22V6H21Z" fill="#000001"/><path d="M22 5H23V6H22Z" fill="#000001"/><path d="M23 5H24V6H23Z" fill="#000001"/><path d="M24 5H25V6H24Z" fill="#000001"/><path d="M19 6H20V7H19Z" fill="#000001"/><path d="M20 6H21V7H20Z" fill="#000001"/><path d="M21 6H22V7H21Z" fill="#000001"/><path d="M22 6H23V7H22Z" fill="#000001"/><path d="M23 6H24V7H23Z" fill="#000001"/><path d="M19 7H20V8H19Z" fill="#000001"/><path d="M20 7H21V8H20Z" fill="#000001"/><path d="M21 7H22V8H21Z" fill="#000001"/><path d="M22 7H23V8H22Z" fill="#000001"/><path d="M19 8H20V9H19Z" fill="#000001"/><path d="M20 8H21V9H20Z" fill="#000001"/><path d="M21 8H22V9H21Z" fill="#000001"/><path d="M19 9H20V10H19Z" fill="#000001"/><path d="M20 9H21V10H20Z" fill="#000001"/><path d="M19 10H20V11H19Z" fill="#000001"/><path d="M6 21H7V22H6Z" fill="#000001"/><path d="M7 21H8V22H7Z" fill="#000001"/><path d="M5 22H6V23H5Z" fill="#000001"/><path d="M6 22H7V23H6Z" fill="#000001"/><path d="M7 22H8V23H7Z" fill="#000001"/><path d="M8 22H9V23H8Z" fill="#000001"/><path d="M5 23H6V24H5Z" fill="#000001"/><path d="M6 23H7V24H6Z" fill="#000001"/><path d="M7 23H8V24H7Z" fill="#000001"/><path d="M8 23H9V24H8Z" fill="#000001"/><path d="M5 24H6V25H5Z" fill="#000001"/><path d="M6 24H7V25H6Z" fill="#000001"/><path d="M7 24H8V25H7Z" fill="#000001"/><path d="M8 24H9V25H8Z" fill="#000001"/><path d="M6 25H7V26H6Z" fill="#000001"/><path d="M7 25H8V26H7Z" fill="#000001"/></svg>